STARTFONT 2.1
COMMENT
COMMENT Converted from OpenType font "MooseNooks.ttf" by "otf2bdf 3.0".
COMMENT
FONT -FreeType-MooseNooks-Medium-R-Normal--17-160-75-75-P-93-ISO10646-1
SIZE 16 75 75
FONTBOUNDINGBOX 15 17 0 -4
STARTPROPERTIES 19
FOUNDRY "FreeType"
FAMILY_NAME "MooseNooks"
WEIGHT_NAME "Medium"
SLANT "R"
SETWIDTH_NAME "Normal"
ADD_STYLE_NAME ""
PIXEL_SIZE 17
POINT_SIZE 160
RESOLUTION_X 75
RESOLUTION_Y 75
SPACING "P"
AVERAGE_WIDTH 93
CHARSET_REGISTRY "ISO10646"
CHARSET_ENCODING "1"
FONT_ASCENT 12
FONT_DESCENT 4
COPYRIGHT "bavarianrobotdin"
_OTF_FONTFILE "MooseNooks.ttf"
_OTF_PSNAME "MooseNooks"
ENDPROPERTIES
CHARS 100
STARTCHAR 0020
ENCODING 32
SWIDTH 300 0
DWIDTH 5 0
BBX 0 0 0 0
BITMAP
ENDCHAR
STARTCHAR 0021
ENCODING 33
SWIDTH 300 0
DWIDTH 5 0
BBX 4 13 0 0
BITMAP
E0
F0
F0
F0
F0
F0
F0
F0
70
00
E0
F0
70
ENDCHAR
STARTCHAR 0022
ENCODING 34
SWIDTH 660 0
DWIDTH 11 0
BBX 10 7 0 6
BITMAP
E780
F7C0
F7C0
73C0
73C0
6380
C600
ENDCHAR
STARTCHAR 0023
ENCODING 35
SWIDTH 840 0
DWIDTH 14 0
BBX 13 13 0 0
BITMAP
31C0
39E0
39E0
FFF8
FFF8
FFF8
39E0
39E0
FFF8
FFF8
39E0
39E0
18E0
ENDCHAR
STARTCHAR 0024
ENCODING 36
SWIDTH 660 0
DWIDTH 11 0
BBX 10 13 0 0
BITMAP
1C00
1C00
3E00
7F80
FF80
F800
FF80
7FC0
0FC0
FF80
7E00
1C00
1C00
ENDCHAR
STARTCHAR 0025
ENCODING 37
SWIDTH 960 0
DWIDTH 16 0
BBX 15 13 0 0
BITMAP
780E
FC1C
EE38
EEF0
FFF0
7DE0
3BC0
07B8
0EFC
1DEE
39EE
70FE
E03C
ENDCHAR
STARTCHAR 0026
ENCODING 38
SWIDTH 840 0
DWIDTH 14 0
BBX 13 13 0 0
BITMAP
1C00
3E00
7780
7780
7FB0
3E30
1C30
7EF0
EFE0
E7E0
F3F0
FFF8
7EF8
ENDCHAR
STARTCHAR 0027
ENCODING 39
SWIDTH 300 0
DWIDTH 5 0
BBX 4 7 0 6
BITMAP
E0
F0
F0
70
70
60
C0
ENDCHAR
STARTCHAR 0028
ENCODING 40
SWIDTH 360 0
DWIDTH 6 0
BBX 5 13 0 0
BITMAP
38
70
E0
E0
E0
E0
E0
E0
E0
E0
E0
70
38
ENDCHAR
STARTCHAR 0029
ENCODING 41
SWIDTH 360 0
DWIDTH 6 0
BBX 5 13 0 0
BITMAP
E0
70
38
38
38
38
38
38
38
38
38
70
E0
ENDCHAR
STARTCHAR 002A
ENCODING 42
SWIDTH 660 0
DWIDTH 11 0
BBX 10 12 0 1
BITMAP
0800
1C00
DDC0
EBC0
FFC0
7F80
1C00
7F80
EBC0
DDC0
1C00
0800
ENDCHAR
STARTCHAR 002B
ENCODING 43
SWIDTH 660 0
DWIDTH 11 0
BBX 10 10 0 1
BITMAP
1C00
1C00
1C00
1C00
FF80
FFC0
7FC0
1C00
1C00
1C00
ENDCHAR
STARTCHAR 002C
ENCODING 44
SWIDTH 300 0
DWIDTH 5 0
BBX 4 6 0 -2
BITMAP
E0
F0
F0
70
60
C0
ENDCHAR
STARTCHAR 002D
ENCODING 45
SWIDTH 420 0
DWIDTH 7 0
BBX 6 4 0 3
BITMAP
F8
FC
FC
7C
ENDCHAR
STARTCHAR 002E
ENCODING 46
SWIDTH 300 0
DWIDTH 5 0
BBX 4 4 0 0
BITMAP
E0
F0
F0
70
ENDCHAR
STARTCHAR 002F
ENCODING 47
SWIDTH 420 0
DWIDTH 7 0
BBX 6 13 0 0
BITMAP
18
1C
1C
38
38
38
38
70
70
70
E0
E0
E0
ENDCHAR
STARTCHAR 0030
ENCODING 48
SWIDTH 660 0
DWIDTH 11 0
BBX 10 13 0 0
BITMAP
3E00
7F80
FFC0
F7C0
F7C0
F7C0
F7C0
F7C0
F7C0
F7C0
FFC0
7F80
3E00
ENDCHAR
STARTCHAR 0031
ENCODING 49
SWIDTH 360 0
DWIDTH 6 0
BBX 5 13 0 0
BITMAP
70
F8
F8
F8
F8
78
78
78
78
78
78
78
38
ENDCHAR
STARTCHAR 0032
ENCODING 50
SWIDTH 660 0
DWIDTH 11 0
BBX 10 13 0 0
BITMAP
3E00
7F80
FFC0
F7C0
F7C0
E7C0
0FC0
1F80
3E00
7C00
FFC0
FFC0
FFC0
ENDCHAR
STARTCHAR 0033
ENCODING 51
SWIDTH 600 0
DWIDTH 10 0
BBX 9 13 0 0
BITMAP
7C00
FE00
FF80
EF80
EF80
0F80
1E00
1F80
0F80
EF80
FF80
FE00
7C00
ENDCHAR
STARTCHAR 0034
ENCODING 52
SWIDTH 720 0
DWIDTH 12 0
BBX 11 13 0 0
BITMAP
0780
0FC0
1FC0
3FC0
7FC0
77C0
E7C0
FFE0
FFE0
7FE0
07C0
07C0
07C0
ENDCHAR
STARTCHAR 0035
ENCODING 53
SWIDTH 720 0
DWIDTH 12 0
BBX 11 13 0 0
BITMAP
FF80
FFC0
FFC0
F000
FF80
FF80
FFC0
7FE0
07E0
F7E0
FFE0
7FC0
3F80
ENDCHAR
STARTCHAR 0036
ENCODING 54
SWIDTH 720 0
DWIDTH 12 0
BBX 11 13 0 0
BITMAP
3F80
7FC0
FBC0
F800
FF80
FF80
FFC0
FFE0
FBE0
FBE0
FFE0
7FC0
3F80
ENDCHAR
STARTCHAR 0037
ENCODING 55
SWIDTH 600 0
DWIDTH 10 0
BBX 9 13 0 0
BITMAP
FF80
FF80
FF80
0F80
1F80
1F80
3E00
7C00
7800
7800
7800
7800
3800
ENDCHAR
STARTCHAR 0038
ENCODING 56
SWIDTH 660 0
DWIDTH 11 0
BBX 10 13 0 0
BITMAP
3E00
7F80
FFC0
F7C0
FFC0
FFC0
7F80
FFC0
F7C0
F7C0
FFC0
7F80
3E00
ENDCHAR
STARTCHAR 0039
ENCODING 57
SWIDTH 660 0
DWIDTH 11 0
BBX 10 13 0 0
BITMAP
3E00
7F80
FFC0
F7C0
F7C0
F7C0
FFC0
7FC0
3FC0
07C0
77C0
7F80
3E00
ENDCHAR
STARTCHAR 003A
ENCODING 58
SWIDTH 300 0
DWIDTH 5 0
BBX 4 11 0 0
BITMAP
E0
F0
F0
F0
70
00
00
E0
F0
F0
70
ENDCHAR
STARTCHAR 003B
ENCODING 59
SWIDTH 300 0
DWIDTH 5 0
BBX 4 12 0 -2
BITMAP
E0
F0
F0
70
00
00
E0
F0
F0
70
60
C0
ENDCHAR
STARTCHAR 003C
ENCODING 60
SWIDTH 600 0
DWIDTH 10 0
BBX 9 13 0 0
BITMAP
0780
0F80
1E00
3C00
7C00
7800
F000
F000
7800
3C00
1E00
0F80
0780
ENDCHAR
STARTCHAR 003D
ENCODING 61
SWIDTH 660 0
DWIDTH 11 0
BBX 10 8 0 2
BITMAP
FF80
FFC0
FFC0
7FC0
0000
FF80
FFC0
7FC0
ENDCHAR
STARTCHAR 003E
ENCODING 62
SWIDTH 600 0
DWIDTH 10 0
BBX 9 13 0 0
BITMAP
E000
F000
7800
3C00
3E00
1E00
0F80
0F80
1E00
3C00
7800
F000
E000
ENDCHAR
STARTCHAR 003F
ENCODING 63
SWIDTH 600 0
DWIDTH 10 0
BBX 9 13 0 0
BITMAP
7E00
FF80
FF80
EF80
EF80
0F80
1E00
3C00
3800
3800
0000
3800
1800
ENDCHAR
STARTCHAR 0040
ENCODING 64
SWIDTH 900 0
DWIDTH 15 0
BBX 14 13 0 0
BITMAP
3FF0
7FF8
E01C
CFCC
DFEC
DFEC
DDEC
DDEC
DFFC
CFB8
E000
7FFC
3FF8
ENDCHAR
STARTCHAR 0041
ENCODING 65
SWIDTH 660 0
DWIDTH 11 0
BBX 10 13 0 0
BITMAP
1C00
3E00
7F80
7F80
FFC0
F7C0
F7C0
FFC0
FFC0
FFC0
F7C0
F7C0
F7C0
ENDCHAR
STARTCHAR 0042
ENCODING 66
SWIDTH 660 0
DWIDTH 11 0
BBX 10 13 0 0
BITMAP
7E00
FF80
FFC0
F7C0
F7C0
F7C0
FF80
FFC0
F7C0
F7C0
FFC0
FF80
7E00
ENDCHAR
STARTCHAR 0043
ENCODING 67
SWIDTH 600 0
DWIDTH 10 0
BBX 9 13 0 0
BITMAP
3E00
7F80
FF80
F780
F780
F000
F000
F000
F000
F780
FF80
7F80
3E00
ENDCHAR
STARTCHAR 0044
ENCODING 68
SWIDTH 660 0
DWIDTH 11 0
BBX 10 13 0 0
BITMAP
FE00
FF80
FFC0
F7C0
F7C0
F7C0
F7C0
F7C0
F7C0
F7C0
FFC0
FF80
7E00
ENDCHAR
STARTCHAR 0045
ENCODING 69
SWIDTH 660 0
DWIDTH 11 0
BBX 10 13 0 0
BITMAP
FF80
FFC0
FFC0
F000
FF80
FF80
FF80
FF80
F000
FF80
FFC0
FFC0
7FC0
ENDCHAR
STARTCHAR 0046
ENCODING 70
SWIDTH 660 0
DWIDTH 11 0
BBX 10 13 0 0
BITMAP
7F80
FFC0
FFC0
F800
F800
F800
FF80
FF80
F800
F800
F800
F800
F800
ENDCHAR
STARTCHAR 0047
ENCODING 71
SWIDTH 660 0
DWIDTH 11 0
BBX 10 13 0 0
BITMAP
3E00
7F80
FF80
F780
F780
F000
FFC0
FFC0
F7C0
F780
FF80
7F80
3E00
ENDCHAR
STARTCHAR 0048
ENCODING 72
SWIDTH 660 0
DWIDTH 11 0
BBX 10 13 0 0
BITMAP
F780
F7C0
F7C0
F7C0
FFC0
FFC0
FFC0
FFC0
F7C0
F7C0
F7C0
F7C0
77C0
ENDCHAR
STARTCHAR 0049
ENCODING 73
SWIDTH 300 0
DWIDTH 5 0
BBX 4 13 0 0
BITMAP
E0
F0
F0
F0
F0
F0
F0
F0
F0
F0
F0
F0
70
ENDCHAR
STARTCHAR 004A
ENCODING 74
SWIDTH 660 0
DWIDTH 11 0
BBX 10 13 0 0
BITMAP
0780
07C0
07C0
07C0
07C0
07C0
07C0
07C0
F7C0
F7C0
FFC0
7FC0
3F80
ENDCHAR
STARTCHAR 004B
ENCODING 75
SWIDTH 660 0
DWIDTH 11 0
BBX 10 13 0 0
BITMAP
F7C0
F7C0
F7C0
F7C0
FFC0
FF80
FE00
FFC0
F7C0
F7C0
F7C0
F7C0
73C0
ENDCHAR
STARTCHAR 004C
ENCODING 76
SWIDTH 600 0
DWIDTH 10 0
BBX 9 13 0 0
BITMAP
E000
F000
F000
F000
F000
F000
F000
F000
F000
F000
FF80
FF80
7F80
ENDCHAR
STARTCHAR 004D
ENCODING 77
SWIDTH 900 0
DWIDTH 15 0
BBX 14 13 0 0
BITMAP
E018
F03C
F8FC
FDFC
FFFC
FFFC
FFFC
FFFC
FFFC
F7BC
F23C
F03C
701C
ENDCHAR
STARTCHAR 004E
ENCODING 78
SWIDTH 780 0
DWIDTH 13 0
BBX 12 13 0 0
BITMAP
E1E0
F1F0
F9F0
FDF0
FFF0
FFF0
FFF0
FFF0
FFF0
F7F0
F3F0
F1F0
70F0
ENDCHAR
STARTCHAR 004F
ENCODING 79
SWIDTH 660 0
DWIDTH 11 0
BBX 10 13 0 0
BITMAP
3E00
7F80
FFC0
F7C0
F7C0
F7C0
F7C0
F7C0
F7C0
F7C0
FFC0
7F80
3E00
ENDCHAR
STARTCHAR 0050
ENCODING 80
SWIDTH 660 0
DWIDTH 11 0
BBX 10 13 0 0
BITMAP
7E00
FF80
FFC0
F7C0
F7C0
F7C0
FF80
FE00
FC00
F000
F000
F000
7000
ENDCHAR
STARTCHAR 0051
ENCODING 81
SWIDTH 660 0
DWIDTH 11 0
BBX 10 13 0 0
BITMAP
3E00
7F80
FFC0
F7C0
F7C0
F7C0
F7C0
F7C0
F7C0
FF80
FFC0
7FC0
3FC0
ENDCHAR
STARTCHAR 0052
ENCODING 82
SWIDTH 660 0
DWIDTH 11 0
BBX 10 13 0 0
BITMAP
7E00
FF80
FFC0
F7C0
F7C0
F7C0
FF80
FFC0
F7C0
F7C0
F7C0
F7C0
73C0
ENDCHAR
STARTCHAR 0053
ENCODING 83
SWIDTH 660 0
DWIDTH 11 0
BBX 10 13 0 0
BITMAP
3E00
7F80
FFC0
F7C0
F7C0
F000
FF80
7FC0
07C0
F7C0
FFC0
7F80
3E00
ENDCHAR
STARTCHAR 0054
ENCODING 84
SWIDTH 720 0
DWIDTH 12 0
BBX 11 13 0 0
BITMAP
FFC0
FFE0
7FE0
1E00
1E00
1E00
1E00
1E00
1E00
1E00
1E00
1E00
0E00
ENDCHAR
STARTCHAR 0055
ENCODING 85
SWIDTH 660 0
DWIDTH 11 0
BBX 10 13 0 0
BITMAP
F7C0
F7C0
F7C0
F7C0
F7C0
F7C0
F7C0
F7C0
F7C0
F7C0
FFC0
7F80
3E00
ENDCHAR
STARTCHAR 0056
ENCODING 86
SWIDTH 660 0
DWIDTH 11 0
BBX 10 13 0 0
BITMAP
F7C0
F7C0
F7C0
F7C0
F7C0
F7C0
F7C0
F7C0
FFC0
FFC0
7F80
3E00
1C00
ENDCHAR
STARTCHAR 0057
ENCODING 87
SWIDTH 900 0
DWIDTH 15 0
BBX 14 13 0 0
BITMAP
E038
F7BC
F7BC
F7BC
F7BC
F7BC
F7BC
F7BC
FFFC
FFFC
7FF8
3FF0
1DE0
ENDCHAR
STARTCHAR 0058
ENCODING 88
SWIDTH 660 0
DWIDTH 11 0
BBX 10 13 0 0
BITMAP
F780
F7C0
F7C0
F7C0
FFC0
7F80
3E00
7F80
F7C0
F7C0
F7C0
F7C0
73C0
ENDCHAR
STARTCHAR 0059
ENCODING 89
SWIDTH 720 0
DWIDTH 12 0
BBX 11 13 0 0
BITMAP
E3C0
F3E0
F3E0
F3E0
F3E0
F3E0
FFE0
7FC0
3F80
1E00
1E00
1E00
1E00
ENDCHAR
STARTCHAR 005A
ENCODING 90
SWIDTH 660 0
DWIDTH 11 0
BBX 10 13 0 0
BITMAP
FF80
FFC0
FFC0
FFC0
FFC0
1F80
3E00
7C00
F800
FFC0
FFC0
FFC0
7FC0
ENDCHAR
STARTCHAR 005B
ENCODING 91
SWIDTH 420 0
DWIDTH 7 0
BBX 6 13 0 0
BITMAP
FC
FC
E0
E0
E0
E0
E0
E0
E0
E0
E0
FC
FC
ENDCHAR
STARTCHAR 005C
ENCODING 92
SWIDTH 420 0
DWIDTH 7 0
BBX 6 13 0 0
BITMAP
60
E0
E0
70
70
70
70
38
38
38
1C
1C
1C
ENDCHAR
STARTCHAR 005D
ENCODING 93
SWIDTH 360 0
DWIDTH 6 0
BBX 5 13 0 0
BITMAP
F8
F8
38
38
38
38
38
38
38
38
38
F8
F8
ENDCHAR
STARTCHAR 005E
ENCODING 94
SWIDTH 780 0
DWIDTH 13 0
BBX 12 7 0 5
BITMAP
0400
0E00
1F80
3FC0
3BC0
71E0
E0F0
ENDCHAR
STARTCHAR 005F
ENCODING 95
SWIDTH 720 0
DWIDTH 12 0
BBX 11 3 0 -2
BITMAP
FFC0
FFE0
7FE0
ENDCHAR
STARTCHAR 0060
ENCODING 96
SWIDTH 300 0
DWIDTH 5 0
BBX 4 8 0 5
BITMAP
60
F0
F0
F0
F0
E0
60
30
ENDCHAR
STARTCHAR 0061
ENCODING 97
SWIDTH 660 0
DWIDTH 11 0
BBX 10 9 0 0
BITMAP
3E00
3E00
7F80
FFC0
F7C0
F7C0
FFC0
7FC0
3BC0
ENDCHAR
STARTCHAR 0062
ENCODING 98
SWIDTH 720 0
DWIDTH 12 0
BBX 11 13 0 0
BITMAP
7000
F000
F000
F000
FF80
FF80
FFC0
FFE0
FBE0
FBE0
FFE0
7FC0
3F80
ENDCHAR
STARTCHAR 0063
ENCODING 99
SWIDTH 600 0
DWIDTH 10 0
BBX 9 9 0 0
BITMAP
3E00
3E00
7F80
F780
F780
F000
F780
7F80
3E00
ENDCHAR
STARTCHAR 0064
ENCODING 100
SWIDTH 720 0
DWIDTH 12 0
BBX 11 13 0 0
BITMAP
03C0
03E0
03E0
03E0
3FE0
3FE0
7FE0
FFE0
F7E0
F7E0
FFE0
7FC0
3F80
ENDCHAR
STARTCHAR 0065
ENCODING 101
SWIDTH 660 0
DWIDTH 11 0
BBX 10 9 0 0
BITMAP
3E00
3E00
7F80
F7C0
FFC0
FF80
F800
7F80
3E00
ENDCHAR
STARTCHAR 0066
ENCODING 102
SWIDTH 600 0
DWIDTH 10 0
BBX 9 13 0 0
BITMAP
3E00
7F80
7F80
7B80
7B80
7800
FE00
FE00
FE00
7800
7800
7800
3800
ENDCHAR
STARTCHAR 0067
ENCODING 103
SWIDTH 660 0
DWIDTH 11 0
BBX 10 13 0 -4
BITMAP
3E00
3E00
7F80
FFC0
F7C0
F7C0
FFC0
7FC0
3FC0
07C0
3FC0
3F80
1E00
ENDCHAR
STARTCHAR 0068
ENCODING 104
SWIDTH 660 0
DWIDTH 11 0
BBX 10 13 0 0
BITMAP
E000
F000
F000
F000
FE00
FE00
FF80
FFC0
F7C0
F7C0
F7C0
F7C0
77C0
ENDCHAR
STARTCHAR 0069
ENCODING 105
SWIDTH 300 0
DWIDTH 5 0
BBX 4 13 0 0
BITMAP
E0
F0
70
00
E0
E0
F0
F0
F0
F0
F0
F0
70
ENDCHAR
STARTCHAR 006A
ENCODING 106
SWIDTH 360 0
DWIDTH 6 0
BBX 5 16 0 -3
BITMAP
70
78
38
00
70
70
78
78
78
78
78
78
78
F8
F0
E0
ENDCHAR
STARTCHAR 006B
ENCODING 107
SWIDTH 660 0
DWIDTH 11 0
BBX 10 13 0 0
BITMAP
7000
F000
F000
F3C0
F7C0
F7C0
FF80
FE00
FF80
FFC0
F7C0
F7C0
F780
ENDCHAR
STARTCHAR 006C
ENCODING 108
SWIDTH 360 0
DWIDTH 6 0
BBX 5 13 0 0
BITMAP
E0
F0
F0
F0
F0
F0
F0
F0
F0
F8
F8
78
38
ENDCHAR
STARTCHAR 006D
ENCODING 109
SWIDTH 900 0
DWIDTH 15 0
BBX 14 9 0 0
BITMAP
6EF0
6EF0
FFF8
FFFC
F7BC
F7BC
F7BC
F7BC
F7BC
ENDCHAR
STARTCHAR 006E
ENCODING 110
SWIDTH 660 0
DWIDTH 11 0
BBX 10 9 0 0
BITMAP
6E00
6E00
FF80
FFC0
F7C0
F7C0
F7C0
F7C0
77C0
ENDCHAR
STARTCHAR 006F
ENCODING 111
SWIDTH 660 0
DWIDTH 11 0
BBX 10 9 0 0
BITMAP
3E00
3E00
7F80
FFC0
F7C0
F7C0
FFC0
7F80
3E00
ENDCHAR
STARTCHAR 0070
ENCODING 112
SWIDTH 720 0
DWIDTH 12 0
BBX 11 13 0 -4
BITMAP
3F80
3F80
7FC0
FFE0
F7E0
F7E0
FFE0
FFC0
FF80
F000
F000
F000
7000
ENDCHAR
STARTCHAR 0071
ENCODING 113
SWIDTH 660 0
DWIDTH 11 0
BBX 10 13 0 -4
BITMAP
3E00
3E00
7F80
FFC0
F7C0
F7C0
FFC0
7FC0
3FC0
03C0
03C0
03C0
0380
ENDCHAR
STARTCHAR 0072
ENCODING 114
SWIDTH 600 0
DWIDTH 10 0
BBX 9 9 0 0
BITMAP
EE00
EE00
FF80
FF80
F780
F000
F000
F000
7000
ENDCHAR
STARTCHAR 0073
ENCODING 115
SWIDTH 660 0
DWIDTH 11 0
BBX 10 9 0 0
BITMAP
3E00
3E00
7F80
F800
FF80
7FC0
0FC0
FF80
7E00
ENDCHAR
STARTCHAR 0074
ENCODING 116
SWIDTH 540 0
DWIDTH 9 0
BBX 7 13 0 0
BITMAP
70
78
78
78
FE
FE
FE
FE
78
78
7E
7E
3C
ENDCHAR
STARTCHAR 0075
ENCODING 117
SWIDTH 660 0
DWIDTH 11 0
BBX 10 9 0 0
BITMAP
F780
F780
F7C0
F7C0
F7C0
F7C0
FFC0
7FC0
3BC0
ENDCHAR
STARTCHAR 0076
ENCODING 118
SWIDTH 660 0
DWIDTH 11 0
BBX 10 9 0 0
BITMAP
F7C0
F7C0
F7C0
F7C0
F7C0
F7C0
7F80
3E00
1C00
ENDCHAR
STARTCHAR 0077
ENCODING 119
SWIDTH 900 0
DWIDTH 15 0
BBX 14 9 0 0
BITMAP
E038
E038
F7BC
F7BC
F7BC
FFFC
FFFC
7DF8
38F0
ENDCHAR
STARTCHAR 0078
ENCODING 120
SWIDTH 660 0
DWIDTH 11 0
BBX 10 9 0 0
BITMAP
F7C0
F7C0
FFC0
7F80
3E00
7F80
FFC0
F7C0
E3C0
ENDCHAR
STARTCHAR 0079
ENCODING 121
SWIDTH 660 0
DWIDTH 11 0
BBX 10 13 0 -4
BITMAP
E780
E780
F7C0
F7C0
F7C0
F7C0
FFC0
7FC0
1FC0
07C0
77C0
7F80
3E00
ENDCHAR
STARTCHAR 007A
ENCODING 122
SWIDTH 660 0
DWIDTH 11 0
BBX 10 9 0 0
BITMAP
FF80
FF80
FFC0
1FC0
3F80
7E00
FC00
FFC0
7FC0
ENDCHAR
STARTCHAR 007B
ENCODING 123
SWIDTH 420 0
DWIDTH 7 0
BBX 6 16 0 -3
BITMAP
1C
3C
78
70
70
70
30
70
E0
70
30
70
70
78
3C
1C
ENDCHAR
STARTCHAR 007C
ENCODING 124
SWIDTH 300 0
DWIDTH 5 0
BBX 4 15 0 -2
BITMAP
E0
F0
F0
F0
F0
F0
F0
F0
F0
F0
F0
F0
F0
F0
70
ENDCHAR
STARTCHAR 007D
ENCODING 125
SWIDTH 420 0
DWIDTH 7 0
BBX 6 16 0 -3
BITMAP
E0
F0
78
38
38
38
30
38
1C
38
30
38
38
78
F0
E0
ENDCHAR
STARTCHAR 007E
ENCODING 126
SWIDTH 660 0
DWIDTH 11 0
BBX 10 7 0 3
BITMAP
7000
F8C0
F8C0
FDC0
DFC0
8FC0
0780
ENDCHAR
STARTCHAR 00A0
ENCODING 160
SWIDTH 300 0
DWIDTH 5 0
BBX 0 0 0 0
BITMAP
ENDCHAR
STARTCHAR 00A1
ENCODING 161
SWIDTH 300 0
DWIDTH 5 0
BBX 4 13 0 -3
BITMAP
E0
F0
F0
F0
70
00
E0
F0
F0
F0
F0
F0
70
ENDCHAR
STARTCHAR 00A2
ENCODING 162
SWIDTH 600 0
DWIDTH 10 0
BBX 9 13 0 0
BITMAP
0780
0780
3E00
7F80
FF80
F780
F780
F000
F780
7F80
3E00
7000
7000
ENDCHAR
STARTCHAR 20AC
ENCODING 8364
SWIDTH 660 0
DWIDTH 11 0
BBX 10 13 0 0
BITMAP
3F80
7FC0
FFC0
F000
FE00
FE00
FE00
F000
FE00
FE00
F000
7FC0
3F80
ENDCHAR
STARTCHAR 3000
ENCODING 12288
SWIDTH 1020 0
DWIDTH 17 0
BBX 0 0 0 0
BITMAP
ENDCHAR
ENDFONT
